<svg width="607" height="215" viewBox="0 0 607 215" fill="none" xmlns="http://www.w3.org/2000/svg">
<rect width="607" height="215" fill="#CEE1E6"/>
<rect width="41.6428" height="38.1308" transform="matrix(1 0 0 -1 347.098 132.884)" fill="#8C86D3"/>
<rect width="41.6428" height="38.1308" transform="matrix(1 0 0 -1 97.7426 72.6772)" fill="#D3A632"/>
<rect width="41.6428" height="38.1308" transform="matrix(1 0 0 -1 296.926 193.09)" fill="#8C2525"/>
<path d="M117.009 63.1766C113.263 63.1766 110.503 62.1732 108.73 60.1663C106.958 58.1594 106.071 55.4166 106.071 51.9381C106.071 48.426 107.041 45.6833 108.981 43.7098C110.921 41.7029 113.564 40.6995 116.908 40.6995C118.112 40.6995 119.233 40.8166 120.27 41.0507C121.34 41.2514 122.327 41.5859 123.23 42.0542L121.976 44.6129C121.206 44.245 120.387 43.9774 119.517 43.8102C118.681 43.6095 117.795 43.5091 116.858 43.5091C114.651 43.5091 112.911 44.245 111.64 45.7167C110.369 47.1884 109.734 49.2789 109.734 51.9882C109.734 57.574 112.192 60.367 117.109 60.367C118.112 60.367 119.049 60.3001 119.919 60.1663C120.822 60.0325 121.641 59.8318 122.377 59.5642V62.3738C121.641 62.608 120.822 62.8087 119.919 62.9759C119.049 63.1097 118.079 63.1766 117.009 63.1766ZM96.0869 71.5553V32.6218H135.02V71.5553H96.0869ZM98.8464 68.7959H132.261V35.3813H98.8464V68.7959ZM155.742 62.725L164.421 41.2012H167.281L175.861 62.725H172.449L169.84 56.2027H161.712L159.153 62.725H155.742ZM162.816 53.4934H168.887L166.629 47.3724C166.529 47.0379 166.428 46.7034 166.328 46.369C166.227 46.0345 166.144 45.7 166.077 45.3655C166.01 45.031 165.96 44.6965 165.926 44.3621H165.726C165.726 44.6631 165.692 44.9809 165.625 45.3153C165.592 45.6164 165.525 45.9509 165.425 46.3188C165.358 46.6533 165.241 47.0045 165.074 47.3724L162.816 53.4934ZM146.259 71.5553V32.6218H185.193V71.5553H146.259ZM149.018 68.7959H182.433V35.3813H149.018V68.7959ZM210.178 62.725V41.2012H216.199C219.009 41.2012 221.116 41.7531 222.521 42.8569C223.925 43.9272 224.628 45.5495 224.628 47.7236C224.628 49.2288 224.293 50.4998 223.624 51.5367C222.955 52.5401 221.952 53.3094 220.614 53.8446C219.31 54.3463 217.654 54.5972 215.647 54.5972H213.64V62.725H210.178ZM213.64 51.8879H215.346C216.784 51.8879 217.905 51.7541 218.708 51.4865C219.51 51.1855 220.079 50.7339 220.413 50.1319C220.781 49.5298 220.965 48.7605 220.965 47.8239C220.965 46.5529 220.547 45.5996 219.711 44.9641C218.875 44.2952 217.62 43.9607 215.948 43.9607H213.64V51.8879ZM196.431 71.5553V32.6218H235.365V71.5553H196.431ZM199.191 68.7959H232.605V35.3813H199.191V68.7959ZM265.719 63.1264C264.515 63.1264 263.377 63.0261 262.307 62.8254C261.237 62.6247 260.217 62.3237 259.247 61.9223V58.7615C260.35 59.2632 261.454 59.6478 262.558 59.9154C263.662 60.1495 264.749 60.2666 265.819 60.2666C267.291 60.2666 268.395 59.999 269.13 59.4639C269.866 58.9287 270.234 58.1427 270.234 57.1058C270.234 56.303 269.933 55.6341 269.331 55.0989C268.729 54.5303 267.96 54.0453 267.023 53.6439C266.12 53.2091 265.184 52.791 264.214 52.3896C262.775 51.7541 261.655 50.9513 260.852 49.9813C260.049 48.9779 259.648 47.7403 259.648 46.2686C259.648 44.5962 260.3 43.2416 261.605 42.2047C262.909 41.1343 264.682 40.5992 266.923 40.5992C268.027 40.5992 269.114 40.7162 270.184 40.9504C271.288 41.1511 272.358 41.4688 273.395 41.9036L272.392 44.5628C271.555 44.1948 270.702 43.9105 269.833 43.7098C268.997 43.5091 268.11 43.4088 267.174 43.4088C265.903 43.4088 264.933 43.6429 264.264 44.1112C263.628 44.5795 263.31 45.2986 263.31 46.2686C263.31 47.0045 263.478 47.6065 263.812 48.0748C264.147 48.5431 264.682 48.9779 265.418 49.3793C266.187 49.7472 267.19 50.1988 268.428 50.7339C270.301 51.5032 271.672 52.3729 272.542 53.3429C273.445 54.2794 273.897 55.4501 273.897 56.8549C273.897 58.1594 273.562 59.2799 272.893 60.2164C272.224 61.153 271.271 61.8721 270.034 62.3738C268.829 62.8756 267.391 63.1264 265.719 63.1264ZM246.603 71.5553V32.6218H285.537V71.5553H246.603ZM249.363 68.7959H282.777V35.3813H249.363V68.7959ZM316.242 63.1766C313.365 63.1766 311.191 62.5076 309.72 61.1697C308.281 59.7983 307.562 57.7747 307.562 55.0989V41.2012H311.024V55.1992C311.024 56.9051 311.459 58.1928 312.329 59.0625C313.198 59.8987 314.503 60.3168 316.242 60.3168C318.048 60.3168 319.353 59.8485 320.155 58.912C320.992 57.9754 321.41 56.7378 321.41 55.1992V41.2012H324.872V55.1992C324.872 57.8416 324.152 59.8318 322.714 61.1697C321.276 62.5076 319.119 63.1766 316.242 63.1766ZM296.775 71.5553V32.6218H335.709V71.5553H296.775ZM299.535 68.7959H332.949V35.3813H299.535V68.7959ZM361.497 62.6749V41.2012H364.959V59.8151H374.291V62.6749H361.497ZM346.947 71.5553V32.6218H385.881V71.5553H346.947ZM349.707 68.7959H383.121V35.3813H349.707V68.7959ZM410.465 62.725V41.2012H423.209V43.9607H413.927V50.1319H422.707V52.791H413.927V59.9656H423.209V62.725H410.465ZM397.119 71.5553V32.6218H436.053V71.5553H397.119ZM399.879 68.7959H433.293V35.3813H399.879V68.7959ZM466.407 63.1264C465.203 63.1264 464.066 63.0261 462.995 62.8254C461.925 62.6247 460.905 62.3237 459.935 61.9223V58.7615C461.039 59.2632 462.142 59.6478 463.246 59.9154C464.35 60.1495 465.437 60.2666 466.507 60.2666C467.979 60.2666 469.083 59.999 469.819 59.4639C470.555 58.9287 470.923 58.1427 470.923 57.1058C470.923 56.303 470.621 55.6341 470.019 55.0989C469.417 54.5303 468.648 54.0453 467.711 53.6439C466.808 53.2091 465.872 52.791 464.902 52.3896C463.464 51.7541 462.343 50.9513 461.54 49.9813C460.738 48.9779 460.336 47.7403 460.336 46.2686C460.336 44.5962 460.988 43.2416 462.293 42.2047C463.597 41.1343 465.37 40.5992 467.611 40.5992C468.715 40.5992 469.802 40.7162 470.872 40.9504C471.976 41.1511 473.046 41.4688 474.083 41.9036L473.08 44.5628C472.244 44.1948 471.391 43.9105 470.521 43.7098C469.685 43.5091 468.799 43.4088 467.862 43.4088C466.591 43.4088 465.621 43.6429 464.952 44.1112C464.317 44.5795 463.999 45.2986 463.999 46.2686C463.999 47.0045 464.166 47.6065 464.5 48.0748C464.835 48.5431 465.37 48.9779 466.106 49.3793C466.875 49.7472 467.879 50.1988 469.116 50.7339C470.989 51.5032 472.361 52.3729 473.23 53.3429C474.134 54.2794 474.585 55.4501 474.585 56.8549C474.585 58.1594 474.251 59.2799 473.582 60.2164C472.913 61.153 471.959 61.8721 470.722 62.3738C469.518 62.8756 468.079 63.1264 466.407 63.1264ZM447.291 71.5553V32.6218H486.225V71.5553H447.291ZM450.051 68.7959H483.466V35.3813H450.051V68.7959ZM217.353 123.177C213.607 123.177 210.847 122.173 209.074 120.166C207.302 118.159 206.415 115.417 206.415 111.938C206.415 108.426 207.385 105.683 209.325 103.71C211.265 101.703 213.908 100.7 217.253 100.7C218.457 100.7 219.577 100.817 220.614 101.051C221.684 101.251 222.671 101.586 223.574 102.054L222.32 104.613C221.551 104.245 220.731 103.977 219.861 103.81C219.025 103.609 218.139 103.509 217.202 103.509C214.995 103.509 213.255 104.245 211.984 105.717C210.713 107.188 210.078 109.279 210.078 111.988C210.078 117.574 212.536 120.367 217.453 120.367C218.457 120.367 219.393 120.3 220.263 120.166C221.166 120.032 221.985 119.832 222.721 119.564V122.374C221.985 122.608 221.166 122.809 220.263 122.976C219.393 123.11 218.423 123.177 217.353 123.177ZM196.431 131.555V92.6218H235.365V131.555H196.431ZM199.191 128.796H232.605V95.3813H199.191V128.796ZM266.07 123.177C263.193 123.177 261.019 122.508 259.548 121.17C258.109 119.798 257.39 117.775 257.39 115.099V101.201H260.852V115.199C260.852 116.905 261.287 118.193 262.157 119.062C263.026 119.899 264.331 120.317 266.07 120.317C267.876 120.317 269.181 119.849 269.983 118.912C270.82 117.975 271.238 116.738 271.238 115.199V101.201H274.7V115.199C274.7 117.842 273.98 119.832 272.542 121.17C271.104 122.508 268.946 123.177 266.07 123.177ZM246.603 131.555V92.6218H285.537V131.555H246.603ZM249.363 128.796H282.777V95.3813H249.363V128.796ZM308.716 122.725V101.201H315.138C317.112 101.201 318.7 101.419 319.905 101.853C321.142 102.288 322.045 102.974 322.614 103.911C323.182 104.814 323.467 105.984 323.467 107.423C323.467 108.76 323.082 109.898 322.313 110.834C321.577 111.737 320.473 112.473 319.001 113.042L325.072 122.725H321.059L315.891 113.945H312.178V122.725H308.716ZM312.178 111.286H315.138C316.71 111.286 317.881 110.968 318.65 110.333C319.453 109.697 319.854 108.76 319.854 107.523C319.854 106.118 319.42 105.182 318.55 104.713C317.714 104.212 316.51 103.961 314.938 103.961H312.178V111.286ZM296.775 131.555V92.6218H335.709V131.555H296.775ZM299.535 128.796H332.949V95.3813H299.535V128.796ZM360.293 122.725V101.201H373.037V103.961H363.755V110.132H372.535V112.791H363.755V119.966H373.037V122.725H360.293ZM346.947 131.555V92.6218H385.881V131.555H346.947ZM349.707 128.796H383.121V95.3813H349.707V128.796ZM54.3438 182.675V161.201H59.0098L64.9301 176.454C65.0973 176.888 65.2144 177.323 65.2813 177.758C65.3482 178.193 65.3984 178.628 65.4318 179.062H65.1809C65.2813 178.628 65.3649 178.193 65.4318 177.758C65.4987 177.323 65.6158 176.888 65.783 176.454L71.8037 161.201H76.4195V182.675H72.9576V169.881C72.9576 168.409 72.9576 167.188 72.9576 166.218C72.9576 165.215 72.9743 164.462 73.0078 163.961L73.5597 163.308L66.6359 182.675H63.8765L56.6517 163.308L57.1534 163.76C57.3207 164.596 57.4377 165.533 57.5046 166.57C57.5715 167.573 57.605 168.66 57.605 169.831V182.675H54.3438ZM45.9149 191.555V152.622H84.8484V191.555H45.9149ZM48.6743 188.796H82.0889V155.381H48.6743V188.796ZM109.433 182.725V161.201H122.176V163.961H112.895V170.132H121.675V172.791H112.895V179.966H122.176V182.725H109.433ZM96.0869 191.555V152.622H135.02V191.555H96.0869ZM98.8464 188.796H132.261V155.381H98.8464V188.796ZM163.97 182.675V164.111H157.247V161.201H174.205V164.111H167.482V182.675H163.97ZM146.259 191.555V152.622H185.193V191.555H146.259ZM149.018 188.796H182.433V155.381H149.018V188.796ZM208.372 182.725V161.201H214.794C216.768 161.201 218.356 161.419 219.56 161.853C220.798 162.288 221.701 162.974 222.27 163.911C222.838 164.814 223.123 165.984 223.123 167.423C223.123 168.76 222.738 169.898 221.969 170.834C221.233 171.737 220.129 172.473 218.657 173.042L224.728 182.725H220.714L215.547 173.945H211.834V182.725H208.372ZM211.834 171.286H214.794C216.366 171.286 217.537 170.968 218.306 170.333C219.109 169.697 219.51 168.76 219.51 167.523C219.51 166.118 219.075 165.182 218.206 164.713C217.37 164.212 216.165 163.961 214.593 163.961H211.834V171.286ZM196.431 191.555V152.622H235.365V191.555H196.431ZM199.191 188.796H232.605V155.381H199.191V188.796ZM266.02 183.227C262.708 183.227 260.15 182.24 258.343 180.267C256.571 178.26 255.684 175.467 255.684 171.888C255.684 168.275 256.587 165.499 258.394 163.559C260.2 161.586 262.759 160.599 266.07 160.599C268.211 160.599 270.034 161.051 271.539 161.954C273.077 162.857 274.265 164.145 275.101 165.817C275.937 167.489 276.355 169.513 276.355 171.888C276.355 174.229 275.954 176.253 275.151 177.959C274.348 179.665 273.178 180.969 271.639 181.872C270.1 182.775 268.227 183.227 266.02 183.227ZM266.02 180.517C268.094 180.517 269.733 179.782 270.937 178.31C272.141 176.805 272.743 174.664 272.743 171.888C272.743 169.379 272.208 167.322 271.137 165.717C270.067 164.111 268.378 163.308 266.07 163.308C263.762 163.308 262.056 164.111 260.952 165.717C259.882 167.322 259.347 169.379 259.347 171.888C259.347 174.43 259.899 176.504 261.003 178.109C262.106 179.715 263.779 180.517 266.02 180.517ZM246.603 191.555V152.622H285.537V191.555H246.603ZM249.363 188.796H282.777V155.381H249.363V188.796ZM310.522 182.725V161.201H316.543C319.353 161.201 321.46 161.753 322.865 162.857C324.27 163.927 324.972 165.549 324.972 167.724C324.972 169.229 324.637 170.5 323.969 171.537C323.3 172.54 322.296 173.309 320.958 173.845C319.654 174.346 317.998 174.597 315.991 174.597H313.984V182.725H310.522ZM313.984 171.888H315.69C317.128 171.888 318.249 171.754 319.052 171.487C319.854 171.185 320.423 170.734 320.758 170.132C321.125 169.53 321.309 168.76 321.309 167.824C321.309 166.553 320.891 165.6 320.055 164.964C319.219 164.295 317.965 163.961 316.292 163.961H313.984V171.888ZM296.775 191.555V152.622H335.709V191.555H296.775ZM299.535 188.796H332.949V155.381H299.535V188.796ZM366.364 183.227C363.053 183.227 360.494 182.24 358.688 180.267C356.915 178.26 356.028 175.467 356.028 171.888C356.028 168.275 356.932 165.499 358.738 163.559C360.544 161.586 363.103 160.599 366.414 160.599C368.555 160.599 370.378 161.051 371.883 161.954C373.421 162.857 374.609 164.145 375.445 165.817C376.281 167.489 376.699 169.513 376.699 171.888C376.699 174.229 376.298 176.253 375.495 177.959C374.692 179.665 373.522 180.969 371.983 181.872C370.445 182.775 368.572 183.227 366.364 183.227ZM366.364 180.517C368.438 180.517 370.077 179.782 371.281 178.31C372.485 176.805 373.087 174.664 373.087 171.888C373.087 169.379 372.552 167.322 371.481 165.717C370.411 164.111 368.722 163.308 366.414 163.308C364.106 163.308 362.4 164.111 361.297 165.717C360.226 167.322 359.691 169.379 359.691 171.888C359.691 174.43 360.243 176.504 361.347 178.109C362.451 179.715 364.123 180.517 366.364 180.517ZM346.947 191.555V152.622H385.881V191.555H346.947ZM349.707 188.796H383.121V155.381H349.707V188.796ZM411.669 182.675V161.201H415.131V179.815H424.463V182.675H411.669ZM397.119 191.555V152.622H436.053V191.555H397.119ZM399.879 188.796H433.293V155.381H399.879V188.796ZM462.343 182.675V180.618L465.002 180.066V163.86L462.343 163.208V161.201H471.224V163.208L468.514 163.86V180.066L471.224 180.618V182.675H462.343ZM447.291 191.555V152.622H486.225V191.555H447.291ZM450.051 188.796H483.466V155.381H450.051V188.796ZM516.579 183.126C515.375 183.126 514.238 183.026 513.167 182.825C512.097 182.625 511.077 182.324 510.107 181.922V178.761C511.211 179.263 512.315 179.648 513.418 179.915C514.522 180.15 515.609 180.267 516.679 180.267C518.151 180.267 519.255 179.999 519.991 179.464C520.727 178.929 521.095 178.143 521.095 177.106C521.095 176.303 520.794 175.634 520.192 175.099C519.589 174.53 518.82 174.045 517.884 173.644C516.981 173.209 516.044 172.791 515.074 172.39C513.636 171.754 512.515 170.951 511.712 169.981C510.91 168.978 510.508 167.74 510.508 166.269C510.508 164.596 511.161 163.242 512.465 162.205C513.769 161.134 515.542 160.599 517.783 160.599C518.887 160.599 519.974 160.716 521.044 160.95C522.148 161.151 523.219 161.469 524.255 161.904L523.252 164.563C522.416 164.195 521.563 163.911 520.693 163.71C519.857 163.509 518.971 163.409 518.034 163.409C516.763 163.409 515.793 163.643 515.124 164.111C514.489 164.579 514.171 165.299 514.171 166.269C514.171 167.004 514.338 167.607 514.673 168.075C515.007 168.543 515.542 168.978 516.278 169.379C517.047 169.747 518.051 170.199 519.288 170.734C521.162 171.503 522.533 172.373 523.403 173.343C524.306 174.279 524.757 175.45 524.757 176.855C524.757 178.159 524.423 179.28 523.754 180.216C523.085 181.153 522.132 181.872 520.894 182.374C519.69 182.876 518.252 183.126 516.579 183.126ZM497.464 191.555V152.622H536.397V191.555H497.464ZM500.223 188.796H533.638V155.381H500.223V188.796Z" fill="#142E29"/>
<rect x="495" y="127.341" width="5.69692" height="7.37171" fill="#142E29"/>
<rect x="502.596" y="127.341" width="5.69692" height="7.37171" fill="#142E29"/>
<rect x="510.192" y="127.341" width="5.69692" height="7.37171" fill="#142E29"/>
<rect x="502.596" y="136.187" width="5.69692" height="7.37171" fill="#142E29"/>
<rect x="502.596" y="145.033" width="5.69692" height="7.37171" fill="#142E29"/>
<rect x="517.787" y="127.341" width="5.69692" height="7.37171" fill="#142E29"/>
<rect x="525.383" y="127.341" width="5.69692" height="7.37171" fill="#142E29"/>
<rect x="525.383" y="136.187" width="5.69692" height="7.37171" fill="#142E29"/>
<rect x="525.383" y="145.033" width="5.69692" height="7.37171" fill="#142E29"/>
<rect x="525.383" y="118.495" width="5.69692" height="7.37171" fill="#142E29"/>
<rect x="517.787" y="118.495" width="5.69692" height="7.37171" fill="#8C2525"/>
<rect x="517.787" y="136.187" width="5.69692" height="7.37171" fill="#06041E"/>
<rect x="517.787" y="145.033" width="5.69692" height="7.37171" fill="#06041E"/>
<rect x="510.192" y="145.033" width="5.69692" height="7.37171" fill="#06041E"/>
<rect x="517.787" y="109.649" width="5.69692" height="7.37171" fill="#142E29"/>
<rect x="513.989" y="100.803" width="5.69692" height="7.37171" fill="#142E29"/>
<rect x="510.192" y="118.495" width="5.69692" height="7.37171" fill="#142E29"/>
<rect x="510.192" y="136.187" width="5.69692" height="7.37171" fill="#142E29"/>
<rect x="502.596" y="118.495" width="5.69692" height="7.37171" fill="#142E29"/>
<rect x="510.192" y="109.649" width="5.69692" height="7.37171" fill="#D3A632"/>
<rect x="532.979" y="127.341" width="5.69692" height="7.37171" fill="#142E29"/>
<rect x="545" y="126.182" width="0.84317" height="46.3744" transform="rotate(90 545 126.182)" fill="#8C2525"/>
<rect x="516.501" y="82" width="0.84317" height="56.8297" fill="#8C2525"/>
</svg>
