<svg width="497" height="180" viewBox="0 0 497 180" fill="none" xmlns="http://www.w3.org/2000/svg">
<path d="M53.5461 145.977L68.42 146.402L50.7838 175.3L43.1343 175.3L53.5461 145.977Z" fill="#D5A62F"/>
<path d="M68.42 146.189H74.5821L72.2447 150.227H66.0827L68.42 146.189Z" fill="#413107"/>
<path d="M0 48.4465L3.18727 46.1091L20.8235 39.7346V36.1224H24.2232L26.1356 33.5726L54.396 23.1608L62.8954 22.0984L69.0575 23.1608L69.9074 8.49938L73.9446 3.39975L86.9062 1.06242L131.103 3.39975L163.826 0L181.674 1.06242L186.136 6.16205L190.174 1.06242L218.222 0L248.394 1.06242V147.039H11.6866L9.5618 143.002L11.0492 140.665L0 58.6457V48.4465Z" fill="#30394F"/>
<rect x="25.0732" y="116.442" width="223.534" height="2.97478" fill="black" fill-opacity="0.4"/>
<path d="M14.4489 45.8967L18.6986 44.1968L18.0612 51.4213L20.8235 80.9566L28.4729 117.716L24.8607 119.204L14.4489 45.8967Z" fill="black" fill-opacity="0.4"/>
<path d="M70.1199 30.1728L70.9698 32.5101L73.0947 39.3096L76.2819 70.9698L77.1319 75.2195L74.1571 75.857L73.0947 68.42L70.9698 37.6098L70.1199 30.1728Z" fill="black" fill-opacity="0.4"/>
<rect x="50.5713" y="89.2882" width="1.68038" height="28.572" transform="rotate(-1.52386 50.5713 89.2882)" fill="black" fill-opacity="0.4"/>
<path d="M63.5329 78.4068L79.4692 73.3072L63.5329 80.1067L53.7586 88.8185L50.7838 89.456L63.5329 78.4068Z" fill="black" fill-opacity="0.4"/>
<path d="M176.362 91.3683L177.212 90.3059L178.062 90.9434L178.487 117.291L175.725 116.442L176.362 114.317V91.3683Z" fill="black" fill-opacity="0.4"/>
<path d="M182.312 69.9074H182.949L183.799 74.5821L184.862 75.432L188.899 77.1319L185.286 80.1067L182.099 74.5821V73.5196L182.312 69.9074Z" fill="black" fill-opacity="0.4"/>
<rect x="182.737" y="6.37453" width="0.849938" height="67.995" fill="black" fill-opacity="0.4"/>
<path d="M190.811 75.007L196.973 73.9446L192.723 75.007L184.649 81.5941L178.062 90.7309L177.425 93.2807L176.575 92.4308L179.762 85.8437L183.162 80.9566L190.811 75.007Z" fill="black" fill-opacity="0.4"/>
<path d="M183.587 69.6949H248.607V74.3696H192.086L183.587 69.6949Z" fill="black" fill-opacity="0.4"/>
<path d="M76.0694 70.9698L182.524 70.1199L181.887 75.007L76.7069 74.5821L76.0694 70.9698Z" fill="black" fill-opacity="0.4"/>
<path d="M443.243 145.977L428.369 146.402L446.005 175.3L453.654 175.3L443.243 145.977Z" fill="#D5A62F"/>
<path d="M428.369 146.189H422.207L424.544 150.227H430.706L428.369 146.189Z" fill="#413107"/>
<path d="M496.789 48.4465L493.601 46.1091L475.965 39.7346V36.1224H472.565L470.653 33.5726L442.393 23.1608L433.893 22.0984L427.731 23.1608L426.881 8.49938L422.844 3.39975L409.883 1.06242L365.686 3.39975L332.963 0L315.114 1.06242L310.652 6.16205L306.615 1.06242L278.567 0L248.394 1.06242V147.039H485.102L487.227 143.002L485.74 140.665L496.789 58.6457V48.4465Z" fill="#30394F"/>
<rect width="223.534" height="2.97478" transform="matrix(-1 0 0 1 471.716 116.442)" fill="black" fill-opacity="0.4"/>
<path d="M482.34 45.8967L478.09 44.1968L478.727 51.4213L475.965 80.9566L468.316 117.716L471.928 119.204L482.34 45.8967Z" fill="black" fill-opacity="0.4"/>
<path d="M426.669 30.1728L425.819 32.5101L423.694 39.3096L420.507 70.9698L419.657 75.2195L422.632 75.857L423.694 68.42L425.819 37.6098L426.669 30.1728Z" fill="black" fill-opacity="0.4"/>
<rect width="1.68038" height="28.572" transform="matrix(-0.999646 -0.0265932 -0.0265932 0.999646 446.217 89.2882)" fill="black" fill-opacity="0.4"/>
<path d="M433.256 78.4068L417.319 73.3072L433.256 80.1067L443.03 88.8185L446.005 89.456L433.256 78.4068Z" fill="black" fill-opacity="0.4"/>
<path d="M320.427 91.3683L319.577 90.3059L318.727 90.9434L318.302 117.291L321.064 116.442L320.427 114.317V91.3683Z" fill="black" fill-opacity="0.4"/>
<path d="M314.477 69.9074H313.84L312.99 74.5821L311.927 75.432L307.89 77.1319L311.502 80.1067L314.689 74.5821V73.5196L314.477 69.9074Z" fill="black" fill-opacity="0.4"/>
<rect width="0.849938" height="67.995" transform="matrix(-1 0 0 1 314.052 6.37453)" fill="black" fill-opacity="0.4"/>
<path d="M305.978 75.007L299.816 73.9446L304.065 75.007L312.14 81.5941L318.727 90.7309L319.364 93.2807L320.214 92.4308L317.027 85.8437L313.627 80.9566L305.978 75.007Z" fill="black" fill-opacity="0.4"/>
<path d="M313.202 69.6949H248.182V74.3696H304.703L313.202 69.6949Z" fill="black" fill-opacity="0.4"/>
<path d="M420.719 70.9698L314.265 70.1199L314.902 75.007L420.082 74.5821L420.719 70.9698Z" fill="black" fill-opacity="0.4"/>
</svg>
