<svg width="157" height="220" viewBox="0 0 157 220" fill="none" xmlns="http://www.w3.org/2000/svg">
<rect width="17.8017" height="23.035" transform="matrix(1 0 0 -1 0 78.319)" fill="#149F86"/>
<rect width="17.8017" height="23.035" transform="matrix(1 0 0 -1 23.7355 78.319)" fill="#149F86"/>
<rect width="17.8017" height="23.035" transform="matrix(1 0 0 -1 47.4706 78.319)" fill="#149F86"/>
<rect width="17.8017" height="23.035" transform="matrix(1 0 0 -1 23.7355 50.6771)" fill="#149F86"/>
<rect width="17.8017" height="23.035" transform="matrix(1 0 0 -1 23.7355 23.0351)" fill="#149F86"/>
<rect width="17.8017" height="23.035" transform="matrix(1 0 0 -1 71.206 78.319)" fill="#149F86"/>
<rect width="17.8017" height="23.035" transform="matrix(1 0 0 -1 94.9414 78.319)" fill="#149F86"/>
<rect width="17.8017" height="23.035" transform="matrix(1 0 0 -1 94.9414 50.6771)" fill="#149F86"/>
<rect width="17.8017" height="23.035" transform="matrix(1 0 0 -1 94.9414 23.0351)" fill="#149F86"/>
<rect width="17.8017" height="23.035" transform="matrix(1 0 0 -1 94.9414 105.962)" fill="#149F86"/>
<rect width="17.8017" height="23.035" transform="matrix(1 0 0 -1 71.2061 105.962)" fill="#8C2525"/>
<rect width="17.8017" height="23.035" transform="matrix(1 0 0 -1 71.206 50.6771)" fill="#06041E"/>
<rect width="17.8017" height="23.035" transform="matrix(1 0 0 -1 71.206 23.0351)" fill="#06041E"/>
<rect width="17.8017" height="23.035" transform="matrix(1 0 0 -1 47.4706 23.0351)" fill="#06041E"/>
<rect width="17.8017" height="23.035" transform="matrix(1 0 0 -1 71.2061 133.604)" fill="#149F86"/>
<rect width="17.8017" height="23.035" transform="matrix(1 0 0 -1 59.3377 161.245)" fill="#8C86D3"/>
<rect width="17.8017" height="23.035" transform="matrix(1 0 0 -1 47.4706 105.962)" fill="#149F86"/>
<rect width="17.8017" height="23.035" transform="matrix(1 0 0 -1 47.4706 50.6771)" fill="#149F86"/>
<rect width="17.8017" height="23.035" transform="matrix(1 0 0 -1 23.7355 105.962)" fill="#149F86"/>
<rect width="17.8017" height="23.035" transform="matrix(1 0 0 -1 47.4706 133.604)" fill="#D3A632"/>
<rect width="17.8017" height="23.035" transform="matrix(1 0 0 -1 118.677 78.319)" fill="#149F86"/>
<rect width="2.63473" height="144.91" transform="matrix(0 -1 -1 0 156.239 81.94)" fill="#8C2525"/>
<rect width="2.63473" height="177.581" transform="matrix(1 0 0 -1 67.1857 220)" fill="#8C2525"/>
</svg>
