<svg width="607" height="215" viewBox="0 0 607 215" fill="none" xmlns="http://www.w3.org/2000/svg">
<rect width="607" height="215" fill="#D5CEB6"/>
<path d="M300.5 11.0286C247.867 11.0286 205.029 53.8867 205.029 106.5C205.029 159.113 247.887 201.971 300.5 201.971C353.113 201.971 395.971 159.113 395.971 106.5C395.971 53.8867 353.113 11.0286 300.5 11.0286ZM300.359 19.5113C301.991 19.5536 303.542 20.234 304.682 21.4074C305.821 22.5808 306.459 24.1544 306.458 25.7926C306.458 27.4585 305.796 29.0562 304.618 30.2341C303.44 31.4121 301.843 32.0739 300.177 32.0739C298.511 32.0739 296.913 31.4121 295.735 30.2341C294.557 29.0562 293.896 27.4585 293.896 25.7926C293.895 24.9522 294.064 24.1203 294.39 23.3461C294.717 22.5719 295.196 21.8713 295.799 21.2855C296.402 20.6998 297.116 20.241 297.899 19.9363C298.682 19.6315 299.519 19.487 300.359 19.5113ZM314.739 29.8522C325.766 31.9176 336.211 36.3586 345.349 42.8667C354.487 49.3748 362.098 57.7942 367.655 67.5399L360.243 84.263C358.97 87.1512 360.283 90.5443 363.151 91.8369L377.41 98.1586C377.853 102.616 377.907 107.103 377.572 111.569H369.634C368.847 111.569 368.524 112.095 368.524 112.862V116.498C368.524 125.061 363.697 126.939 359.455 127.404C355.416 127.868 350.952 125.707 350.387 123.243C348.003 109.853 344.045 107.005 337.784 102.057C345.56 97.1286 353.638 89.8374 353.638 80.1025C353.638 69.5798 346.428 62.9552 341.52 59.7034C334.613 55.1591 326.978 54.2502 324.918 54.2502H242.918C254.257 41.5835 269.455 33.0082 286.16 29.8522L295.834 39.9911C298.016 42.2734 301.631 42.3744 303.913 40.1729L314.739 29.8522ZM225.468 76.3458C227.102 76.3931 228.654 77.0757 229.792 78.2486C230.931 79.4215 231.568 80.9922 231.567 82.6271C231.567 84.293 230.906 85.8906 229.728 87.0686C228.55 88.2466 226.952 88.9084 225.286 88.9084C223.62 88.9084 222.023 88.2466 220.845 87.0686C219.667 85.8906 219.005 84.293 219.005 82.6271C219.005 81.7867 219.173 80.9548 219.5 80.1806C219.827 79.4064 220.306 78.7057 220.908 78.12C221.511 77.5343 222.225 77.0755 223.008 76.7707C223.792 76.466 224.628 76.3215 225.468 76.3458ZM375.229 76.6286C376.863 76.6759 378.415 77.3585 379.554 78.5314C380.692 79.7042 381.329 81.275 381.329 82.9098C381.329 84.5757 380.667 86.1734 379.489 87.3514C378.311 88.5293 376.713 89.1911 375.047 89.1911C373.381 89.1911 371.784 88.5293 370.606 87.3514C369.428 86.1734 368.766 84.5757 368.766 82.9098C368.766 82.0695 368.934 81.2375 369.261 80.4634C369.588 79.6892 370.067 78.9885 370.67 78.4028C371.272 77.8171 371.986 77.3583 372.769 77.0535C373.553 76.7487 374.389 76.6042 375.229 76.6286ZM237.303 77.6384H248.25V127H226.155C223.426 117.417 222.575 107.398 223.65 97.4921L237.182 91.4734C240.07 90.1808 241.383 86.8079 240.091 83.9197L237.303 77.6384ZM282.989 78.1635H309.064C310.417 78.1635 318.576 79.7187 318.576 85.8384C318.576 90.9079 312.315 92.7256 307.165 92.7256H282.969L282.989 78.1635ZM282.989 113.63H302.964C304.782 113.63 312.719 114.155 315.244 124.294C316.032 127.404 317.789 137.543 318.98 140.795C320.172 144.43 324.999 151.701 330.149 151.701H362.747C360.563 154.627 358.173 157.394 355.598 159.982L342.328 157.134C339.238 156.467 336.188 158.447 335.522 161.537L332.371 176.24C322.239 180.83 311.236 183.179 300.113 183.127C288.991 183.074 278.01 180.622 267.922 175.937L264.771 161.234C264.105 158.144 261.075 156.165 257.985 156.831L244.999 159.618C242.589 157.132 240.348 154.487 238.293 151.701H301.449C302.156 151.701 302.641 151.58 302.641 150.913V128.575C302.641 127.929 302.156 127.788 301.449 127.788H282.969L282.989 113.63ZM253.845 164.789C255.479 164.836 257.03 165.519 258.169 166.691C259.308 167.864 259.945 169.435 259.944 171.07C259.944 172.736 259.283 174.334 258.105 175.511C256.927 176.689 255.329 177.351 253.663 177.351C251.997 177.351 250.399 176.689 249.222 175.511C248.044 174.334 247.382 172.736 247.382 171.07C247.381 170.23 247.55 169.398 247.877 168.623C248.204 167.849 248.683 167.149 249.285 166.563C249.888 165.977 250.602 165.518 251.385 165.214C252.168 164.909 253.005 164.764 253.845 164.789ZM346.852 165.071C348.486 165.119 350.038 165.801 351.177 166.974C352.316 168.147 352.952 169.718 352.952 171.353C352.952 173.019 352.29 174.616 351.112 175.794C349.934 176.972 348.336 177.634 346.67 177.634C345.005 177.634 343.407 176.972 342.229 175.794C341.051 174.616 340.389 173.019 340.389 171.353C340.389 170.512 340.557 169.68 340.884 168.906C341.211 168.132 341.69 167.431 342.293 166.846C342.895 166.26 343.609 165.801 344.393 165.496C345.176 165.192 346.012 165.047 346.852 165.071Z" fill="black"/>
<path fill-rule="evenodd" clip-rule="evenodd" d="M390.639 106.5C390.639 130.406 381.143 153.334 364.238 170.238C347.334 187.143 324.406 196.639 300.5 196.639C276.594 196.639 253.666 187.143 236.762 170.238C219.857 153.334 210.361 130.406 210.361 106.5C210.361 82.5935 219.857 59.6662 236.762 42.7618C253.666 25.8574 276.594 16.3606 300.5 16.3606C324.406 16.3606 347.334 25.8574 364.238 42.7618C381.143 59.6662 390.639 82.5935 390.639 106.5ZM388.943 97.7951L403 106.5L388.943 115.205L401.021 126.495L385.55 132.292L395.204 145.723L378.865 148.389L385.732 163.456L369.19 162.87L372.987 178.987L356.87 175.19L357.456 191.732L342.389 184.865L339.723 201.204L326.292 191.55L320.495 207.021L309.205 194.943L300.5 209L291.795 194.943L280.505 207.021L274.708 191.55L261.277 201.204L258.611 184.865L243.544 191.732L244.13 175.19L228.013 178.987L231.81 162.87L215.268 163.456L222.135 148.389L205.796 145.723L215.45 132.292L199.979 126.495L212.057 115.205L198 106.5L212.057 97.7951L199.979 86.5049L215.45 80.7084L205.796 67.2773L222.135 64.6113L215.268 49.5443L231.81 50.13L228.013 34.0128L244.13 37.8098L243.544 21.2685L258.611 28.1355L261.277 11.7961L274.708 21.4502L280.505 5.97931L291.795 18.0571L300.5 4L309.205 18.0571L320.495 5.97931L326.292 21.4502L339.723 11.7961L342.389 28.1355L357.456 21.2685L356.87 37.8098L372.987 34.0128L369.19 50.13L385.732 49.5443L378.865 64.6113L395.204 67.2773L385.55 80.7084L401.021 86.5049L388.943 97.7951Z" fill="black" stroke="black" stroke-width="3" stroke-linecap="round" stroke-linejoin="round"/>
</svg>
