<svg width="295" height="269" viewBox="0 0 295 269" fill="none" xmlns="http://www.w3.org/2000/svg">
<mask id="mask0_63_3" style="mask-type:luminance" maskUnits="userSpaceOnUse" x="0" y="0" width="295" height="269">
<path d="M0 2.6226e-06H294.36V269H0V2.6226e-06Z" fill="white"/>
</mask>
<g mask="url(#mask0_63_3)">
<path d="M133.479 128.051C133.479 136.106 128.359 142.636 122.043 142.636C115.728 142.636 110.608 136.106 110.608 128.051C110.608 119.996 115.728 113.466 122.043 113.466C128.359 113.466 133.479 119.996 133.479 128.051Z" fill="#DB8681"/>
<path d="M183.753 128.051C183.753 136.106 178.633 142.636 172.317 142.636C166.001 142.636 160.881 136.106 160.881 128.051C160.881 119.996 166.001 113.466 172.317 113.466C178.633 113.466 183.753 119.996 183.753 128.051Z" fill="#DB8681"/>
<path d="M147.179 168.416C132.691 168.416 118.641 164.569 106.539 157.287L106.435 157.224C105.022 156.373 104.631 154.636 105.563 153.345C106.494 152.054 108.394 151.697 109.807 152.548L109.911 152.61C121.007 159.287 133.894 162.816 147.179 162.816H147.239C160.546 162.805 173.448 159.255 184.55 152.55C185.961 151.697 187.862 152.052 188.795 153.342C189.729 154.632 189.341 156.369 187.929 157.222C175.824 164.534 161.755 168.405 147.245 168.416H147.179Z" fill="#DB8681"/>
<path d="M212.832 166.285C209.243 174.039 204.106 181.002 197.562 186.982C191.018 192.962 183.398 197.657 174.914 200.937C166.13 204.332 156.799 206.053 147.18 206.053C137.561 206.053 128.23 204.332 119.447 200.937C110.962 197.657 103.342 192.962 96.7985 186.982C90.2545 181.002 85.1168 174.039 81.5283 166.285C77.8134 158.258 75.9295 149.731 75.9295 140.941C75.9295 132.151 77.8134 123.624 81.5283 115.597C85.1168 107.843 90.2545 100.88 96.7985 94.8997C103.342 88.92 110.962 84.2249 119.447 80.9454C128.23 77.5502 137.561 75.8289 147.18 75.8289C156.799 75.8289 166.13 77.5502 174.914 80.9454C183.398 84.2249 191.018 88.92 197.562 94.8997C204.106 100.88 209.243 107.843 212.832 115.597C216.547 123.624 218.431 132.151 218.431 140.941C218.431 149.731 216.547 158.258 212.832 166.285ZM221.1 169.481C224.262 162.649 226.246 155.498 227.027 148.144L242.262 140.941L227.027 133.738C226.246 126.384 224.262 119.233 221.1 112.401C220.834 111.825 220.559 111.254 220.277 110.685L229.523 97.4961L212.394 98.2191C209.856 94.9919 207.025 91.9457 203.91 89.0988C200.795 86.2519 197.461 83.6648 193.93 81.3461L194.721 65.6923L180.288 74.1414C179.667 73.8841 179.041 73.6333 178.411 73.3897C171.216 70.6085 163.696 68.8282 155.967 68.0613C158.293 67.0998 160.39 65.773 162.208 64.1119C164.15 62.3368 165.675 60.2695 166.74 57.9678C167.843 55.5846 168.403 53.053 168.403 50.4437C168.403 50.2799 168.257 50.1468 168.078 50.1468C165.239 50.1468 162.484 50.6525 159.889 51.6493C159.931 51.1678 159.954 50.6839 159.956 50.1979C159.968 47.6103 159.416 45.0774 158.315 42.6699C158.246 42.5187 158.056 42.4472 157.89 42.5105C155.471 43.4346 153.3 44.732 151.427 46.3696C150.409 44.4819 149.062 42.7663 147.41 41.2559C147.283 41.1403 147.077 41.1403 146.95 41.2559C145.298 42.7663 143.951 44.4819 142.933 46.3696C141.06 44.732 138.89 43.4346 136.47 42.5105C136.305 42.4472 136.114 42.5187 136.045 42.6699C134.944 45.0774 134.392 47.6103 134.404 50.1979C134.407 50.6839 134.429 51.1678 134.471 51.6493C131.876 50.6525 129.121 50.1468 126.283 50.1468C126.103 50.1468 125.957 50.2799 125.957 50.4437C125.957 53.053 126.517 55.5846 127.62 57.9678C128.685 60.2695 130.21 62.3368 132.153 64.1119C133.97 65.773 136.068 67.0998 138.394 68.0613C130.664 68.8282 123.145 70.6085 115.949 73.3897C115.319 73.6333 114.694 73.8841 114.072 74.1416L99.6394 65.6923L100.43 81.3461C96.8991 83.6648 93.5657 86.2519 90.4504 89.0988C87.3351 91.9457 84.5041 94.9919 81.9669 98.2191L64.8373 97.4961L74.0829 110.685C73.8014 111.254 73.5266 111.825 73.2603 112.401C70.0981 119.233 68.1145 126.384 67.3331 133.738L52.0988 140.941L67.3331 148.144C68.1145 155.498 70.0981 162.649 73.2603 169.481C73.5266 170.057 73.8011 170.629 74.0829 171.197L64.8373 184.386L81.9669 183.663C84.5041 186.891 87.3351 189.936 90.4504 192.783C93.5657 195.63 96.8988 198.217 100.43 200.536L99.6394 216.19L114.072 207.741C114.694 207.998 115.319 208.249 115.949 208.493C123.425 211.382 131.25 213.195 139.298 213.909L147.18 227.831L155.062 213.909C163.11 213.195 170.935 211.382 178.411 208.493C179.041 208.249 179.667 207.998 180.288 207.741L194.721 216.19L193.93 200.536C197.462 198.217 200.795 195.63 203.91 192.783C207.025 189.936 209.856 186.891 212.394 183.663L229.523 184.386L220.277 171.197C220.559 170.629 220.834 170.057 221.1 169.481Z" fill="#DB8681"/>
</g>
</svg>
