<svg width="607" height="290" viewBox="0 0 607 290" fill="none" xmlns="http://www.w3.org/2000/svg">
<rect y="38" width="607" height="215" fill="#FBC7C7"/>
<mask id="mask0_1_125" style="mask-type:luminance" maskUnits="userSpaceOnUse" x="139" y="0" width="330" height="290">
<path d="M139 1.19209e-05H469V290H139V1.19209e-05Z" fill="white"/>
</mask>
<g mask="url(#mask0_1_125)">
<path d="M288.64 138.047C288.64 146.731 282.9 153.771 275.82 153.771C268.739 153.771 262.999 146.731 262.999 138.047C262.999 129.364 268.739 122.324 275.82 122.324C282.9 122.324 288.64 129.364 288.64 138.047Z" fill="#9D2B24"/>
<path d="M345.001 138.047C345.001 146.731 339.261 153.771 332.18 153.771C325.1 153.771 319.36 146.731 319.36 138.047C319.36 129.364 325.1 122.324 332.18 122.324C339.261 122.324 345.001 129.364 345.001 138.047Z" fill="#9D2B24"/>
<path d="M303.999 181.564C287.757 181.564 272.005 177.416 258.439 169.566L258.321 169.498C256.737 168.58 256.3 166.708 257.344 165.316C258.388 163.924 260.518 163.539 262.102 164.456L262.218 164.524C274.658 171.722 289.105 175.526 303.999 175.526H304.066C318.985 175.515 333.448 171.688 345.894 164.459C347.476 163.539 349.608 163.922 350.654 165.313C351.7 166.704 351.265 168.577 349.682 169.496C336.112 177.378 320.34 181.551 304.073 181.564H303.999Z" fill="#9D2B24"/>
<path d="M377.601 179.267C373.577 187.626 367.818 195.133 360.482 201.58C353.146 208.026 344.603 213.088 335.092 216.623C325.245 220.283 314.784 222.139 304 222.139C293.216 222.139 282.756 220.283 272.909 216.623C263.397 213.088 254.854 208.026 247.518 201.58C240.182 195.133 234.422 187.626 230.399 179.267C226.235 170.613 224.123 161.42 224.123 151.944C224.123 142.467 226.235 133.275 230.399 124.621C234.422 116.262 240.182 108.755 247.518 102.308C254.854 95.8617 263.397 90.8001 272.909 87.2645C282.756 83.6043 293.216 81.7486 304 81.7486C314.784 81.7486 325.245 83.6043 335.092 87.2645C344.603 90.8001 353.146 95.8617 360.482 102.308C367.818 108.755 373.577 116.262 377.601 124.621C381.766 133.275 383.877 142.467 383.877 151.944C383.877 161.42 381.766 170.613 377.601 179.267ZM386.87 182.712C390.415 175.347 392.639 167.638 393.515 159.709L410.593 151.944L393.515 144.179C392.639 136.25 390.415 128.541 386.87 121.176C386.571 120.555 386.263 119.939 385.948 119.326L396.313 105.107L377.109 105.887C374.265 102.408 371.091 99.1236 367.598 96.0545C364.106 92.9853 360.369 90.1962 356.41 87.6966L357.297 70.8207L341.116 79.9294C340.42 79.652 339.719 79.3816 339.012 79.119C330.945 76.1207 322.516 74.2014 313.85 73.3746C316.458 72.3381 318.809 70.9077 320.847 69.1169C323.025 67.2032 324.734 64.9745 325.929 62.4931C327.165 59.924 327.792 57.1947 327.792 54.3817C327.792 54.205 327.629 54.0617 327.428 54.0617C324.245 54.0617 321.157 54.6068 318.248 55.6814C318.295 55.1623 318.32 54.6406 318.323 54.1167C318.336 51.3271 317.718 48.5965 316.483 46.001C316.406 45.838 316.192 45.7609 316.007 45.8291C313.294 46.8254 310.861 48.2241 308.761 49.9896C307.62 47.9545 306.11 46.1049 304.258 44.4766C304.115 44.352 303.885 44.352 303.742 44.4766C301.89 46.1049 300.38 47.9545 299.239 49.9896C297.139 48.2241 294.706 46.8254 291.994 45.8291C291.808 45.7609 291.594 45.838 291.517 46.001C290.282 48.5965 289.664 51.3271 289.677 54.1167C289.68 54.6406 289.705 55.1623 289.752 55.6814C286.843 54.6068 283.755 54.0617 280.572 54.0617C280.371 54.0617 280.208 54.205 280.208 54.3817C280.208 57.1947 280.835 59.924 282.072 62.4931C283.266 64.9745 284.976 67.2032 287.153 69.1169C289.191 70.9077 291.542 72.3381 294.15 73.3746C285.484 74.2014 277.055 76.1207 268.988 79.119C268.282 79.3816 267.58 79.652 266.884 79.9297L250.703 70.8207L251.59 87.6966C247.631 90.1962 243.894 92.9853 240.402 96.0545C236.909 99.1236 233.735 102.408 230.891 105.887L211.687 105.107L222.052 119.326C221.737 119.939 221.429 120.555 221.13 121.176C217.585 128.541 215.361 136.25 214.485 144.179L197.407 151.944L214.485 159.709C215.361 167.638 217.585 175.347 221.13 182.712C221.429 183.333 221.737 183.949 222.052 184.562L211.687 198.781L230.891 198.001C233.735 201.48 236.909 204.764 240.402 207.833C243.894 210.903 247.631 213.692 251.59 216.191L250.703 233.067L266.884 223.958C267.58 224.236 268.282 224.506 268.988 224.769C277.369 227.884 286.141 229.838 295.164 230.608L304 245.617L312.836 230.608C321.859 229.838 330.631 227.884 339.012 224.769C339.719 224.506 340.42 224.236 341.116 223.958L357.297 233.067L356.41 216.192C360.369 213.692 364.106 210.903 367.598 207.833C371.091 204.764 374.265 201.48 377.109 198.001L396.313 198.781L385.948 184.562C386.263 183.949 386.571 183.333 386.87 182.712Z" fill="#9D2B24"/>
</g>
</svg>
